<?xml version="1.0" encoding="utf-8"?>
<!-- Generator: Adobe Illustrator 25.4.1, SVG Export Plug-In . SVG Version: 6.00 Build 0)  -->
<svg version="1.0" id="katman_1" xmlns="http://www.w3.org/2000/svg" xmlns:xlink="http://www.w3.org/1999/xlink" x="0px" y="0px"
	 viewBox="0 0 148 102" style="enable-background:new 0 0 148 102;" xml:space="preserve">
<style type="text/css">
	.st0{fill:url(#SVGID_1_);}
	.st1{fill:#FFFFFF;}
</style>
<symbol  id="pycharm-ce" viewBox="-29 -29 58 58">
	<linearGradient id="SVGID_1_" gradientUnits="userSpaceOnUse" x1="28.1745" y1="28.1745" x2="-44.0605" y2="-44.0605">
		<stop  offset="0.482" style="stop-color:#FCF84A"/>
		<stop  offset="0.726" style="stop-color:#21D789"/>
	</linearGradient>
	<path class="st0" d="M29-29h-58v58h58V-29z"/>
	<path d="M21-21h-42v42h42V-21z"/>
	<path class="st1" d="M-15.9-15.9h6.4c3.7,0,6.1,2.2,6.1,5.5c0,3.6-2.8,5.5-6.4,5.5h-2.7v4.7H-16v-15.6H-15.9z M-9.7-7.8
		C-7.9-7.8-7-9-7-10.3c0-1.5-1-2.3-2.8-2.3h-2.7v4.8H-9.7z"/>
	<path class="st1" d="M-1.4-7.9c0-4.4,3.3-8.2,8.2-8.2c3,0,4.7,0.9,6.3,2.3L11-11.2c-1.2-1.2-2.3-1.9-4-1.9c-2.6,0-4.7,2.1-4.7,4.9
		S4.2-3.3,7-3.3c1.9,0,2.8-0.7,4.2-1.9l2.1,2.3C11.4-0.9,9.6,0,6.5,0C1.9,0-1.4-3.5-1.4-7.9z"/>
	<path class="st1" d="M-0.6,13.6h-15.7v2.7h15.7V13.6z"/>
</symbol>
<use xlink:href="#pycharm-ce"  width="58" height="58" x="-29" y="-29" transform="matrix(1 0 0 1 74 51)" style="overflow:visible;"/>
</svg>
