<svg width="583" height="610" viewBox="0 0 583 610" fill="none" xmlns="http://www.w3.org/2000/svg">
<rect width="583" height="610" fill="#F5F5F5"/>
<g clip-path="url(#clip0_0_1)">
<rect width="582.99" height="609.67" fill="white"/>
<path d="M574.881 88.0433L386.601 299.455C386.064 300.036 385.412 300.5 384.687 300.817C383.962 301.134 383.179 301.298 382.387 301.298C381.596 301.298 380.813 301.134 380.088 300.817C379.363 300.5 378.711 300.036 378.174 299.455L282.061 200.294C281.246 199.276 280.802 198.011 280.802 196.708C280.802 195.404 281.246 194.139 282.061 193.121L313.8 152.417C314.331 151.677 315.031 151.073 315.842 150.657C316.653 150.241 317.551 150.024 318.462 150.024C319.373 150.024 320.271 150.241 321.082 150.657C321.893 151.073 322.593 151.677 323.124 152.417L376.918 211.949C377.457 212.59 378.129 213.106 378.888 213.459C379.647 213.813 380.474 213.996 381.312 213.996C382.149 213.996 382.976 213.813 383.735 213.459C384.494 213.106 385.166 212.59 385.705 211.949L535.611 6.45531C536.028 5.84803 536.275 5.14013 536.326 4.4052C536.377 3.67027 536.23 2.93513 535.901 2.27622C535.571 1.61731 535.071 1.05867 534.453 0.658377C533.834 0.258082 533.12 0.0307461 532.384 0L4.48285 0C3.29393 0 2.1537 0.472299 1.313 1.313C0.472299 2.1537 0 3.29393 0 4.48285L0 605.185C0 606.374 0.472299 607.515 1.313 608.355C2.1537 609.196 3.29393 609.668 4.48285 609.668H578.288C579.477 609.668 580.617 609.196 581.458 608.355C582.299 607.515 582.771 606.374 582.771 605.185V90.733C583.128 89.6867 583.054 88.5416 582.567 87.5496C582.079 86.5576 581.217 85.7999 580.171 85.4432C579.125 85.0865 577.98 85.1601 576.988 85.6477C575.996 86.1353 575.238 86.997 574.881 88.0433ZM162.459 542.784C124.79 544.682 87.8654 531.817 59.5323 506.921C58.6372 505.906 58.1433 504.599 58.1433 503.245C58.1433 501.892 58.6372 500.585 59.5323 499.569L81.9466 468.189C82.3167 467.547 82.8117 466.984 83.4024 466.536C83.9931 466.087 84.6676 465.762 85.3861 465.578C86.1046 465.394 86.8527 465.356 87.5862 465.466C88.3197 465.575 89.0238 465.831 89.6571 466.217C110.133 485.2 137.047 495.71 164.969 495.624C194.377 495.624 208.722 481.997 208.722 467.651C208.722 423.181 63.8358 453.665 63.8358 358.987C63.8358 317.207 99.6987 282.42 159.231 282.42C193.395 281.205 226.842 292.418 253.371 313.979C254.368 315.015 254.925 316.397 254.925 317.834C254.925 319.272 254.368 320.654 253.371 321.69L231.315 352.352C230.86 352.962 230.284 353.472 229.623 353.85C228.963 354.229 228.232 354.467 227.475 354.551C226.719 354.635 225.953 354.563 225.226 354.339C224.498 354.115 223.824 353.744 223.246 353.249C203.685 337.701 179.376 329.345 154.389 329.579C131.437 329.579 118.527 339.8 118.527 354.863C118.527 394.85 263.054 368.132 263.054 462.451C263.054 507.997 230.239 542.784 162.279 542.784H162.459ZM478.41 455.458C478.435 456.124 478.323 456.788 478.079 457.409C477.836 458.029 477.467 458.593 476.996 459.064C476.524 459.536 475.961 459.905 475.34 460.148C474.72 460.391 474.055 460.504 473.389 460.479H340.697C340.484 460.501 340.279 460.565 340.091 460.668C339.904 460.77 339.738 460.909 339.605 461.076C339.472 461.242 339.373 461.434 339.314 461.639C339.255 461.845 339.238 462.06 339.262 462.272C341.414 474.671 348.128 485.817 358.083 493.516C368.039 501.214 380.515 504.909 393.057 503.873C409.515 503.524 425.496 498.281 438.961 488.81C439.487 488.37 440.1 488.046 440.76 487.86C441.42 487.674 442.112 487.631 442.79 487.733C443.468 487.834 444.117 488.079 444.693 488.45C445.27 488.822 445.761 489.311 446.134 489.886L462.272 513.376C462.944 514.42 463.207 515.675 463.008 516.9C462.809 518.126 462.164 519.234 461.196 520.011C439.891 535.559 414.044 543.628 387.677 542.963C374.506 543.698 361.326 541.672 348.983 537.016C336.641 532.359 325.407 525.175 316.004 515.923C306.6 506.671 299.233 495.556 294.376 483.291C289.519 471.026 287.279 457.881 287.799 444.699C287.434 431.834 289.68 419.028 294.403 407.055C299.126 395.082 306.227 384.191 315.278 375.04C324.328 365.889 335.14 358.668 347.06 353.813C358.98 348.958 371.76 346.57 384.629 346.794C440.396 346.794 478.231 388.574 478.231 449.72L478.41 455.458Z" fill="#01A71C"/>
</g>
<defs>
<clipPath id="clip0_0_1">
<rect width="582.99" height="609.67" fill="white"/>
</clipPath>
</defs>
</svg>
