<svg width="2500" height="610" viewBox="0 0 2500 610" fill="none" xmlns="http://www.w3.org/2000/svg">
<rect width="2500" height="610" fill="#F5F5F5"/>
<g clip-path="url(#clip0_0_1)">
<path d="M1578.88 73.0433L1390.6 284.455C1390.06 285.036 1389.41 285.5 1388.69 285.817C1387.96 286.134 1387.18 286.298 1386.39 286.298C1385.6 286.298 1384.81 286.134 1384.09 285.817C1383.36 285.5 1382.71 285.036 1382.17 284.455L1286.06 185.294C1285.25 184.276 1284.8 183.011 1284.8 181.708C1284.8 180.404 1285.25 179.139 1286.06 178.121L1317.8 137.417C1318.33 136.677 1319.03 136.073 1319.84 135.657C1320.65 135.241 1321.55 135.024 1322.46 135.024C1323.37 135.024 1324.27 135.241 1325.08 135.657C1325.89 136.073 1326.59 136.677 1327.12 137.417L1380.92 196.949C1381.46 197.59 1382.13 198.106 1382.89 198.459C1383.65 198.813 1384.47 198.996 1385.31 198.996C1386.15 198.996 1386.98 198.813 1387.73 198.459C1388.49 198.106 1389.17 197.59 1389.7 196.949L1539.61 -8.54469C1540.03 -9.15197 1540.28 -9.85987 1540.33 -10.5948C1540.38 -11.3297 1540.23 -12.0649 1539.9 -12.7238C1539.57 -13.3827 1539.07 -13.9413 1538.45 -14.3416C1537.83 -14.7419 1537.12 -14.9693 1536.38 -15L1008.48 -15C1007.29 -15 1006.15 -14.5277 1005.31 -13.687C1004.47 -12.8463 1004 -11.7061 1004 -10.5171V590.185C1004 591.374 1004.47 592.515 1005.31 593.355C1006.15 594.196 1007.29 594.668 1008.48 594.668H1582.29C1583.48 594.668 1584.62 594.196 1585.46 593.355C1586.3 592.515 1586.77 591.374 1586.77 590.185V75.733C1587.13 74.6867 1587.05 73.5416 1586.57 72.5496C1586.08 71.5576 1585.22 70.7999 1584.17 70.4432C1583.12 70.0865 1581.98 70.1601 1580.99 70.6477C1580 71.1353 1579.24 71.997 1578.88 73.0433ZM1166.46 527.784C1128.79 529.682 1091.87 516.817 1063.53 491.921C1062.64 490.906 1062.14 489.599 1062.14 488.245C1062.14 486.892 1062.64 485.585 1063.53 484.569L1085.95 453.189C1086.32 452.547 1086.81 451.984 1087.4 451.536C1087.99 451.087 1088.67 450.762 1089.39 450.578C1090.1 450.394 1090.85 450.356 1091.59 450.466C1092.32 450.575 1093.02 450.831 1093.66 451.217C1114.13 470.2 1141.05 480.71 1168.97 480.624C1198.38 480.624 1212.72 466.997 1212.72 452.651C1212.72 408.181 1067.84 438.665 1067.84 343.987C1067.84 302.207 1103.7 267.42 1163.23 267.42C1197.4 266.205 1230.84 277.418 1257.37 298.979C1258.37 300.015 1258.93 301.397 1258.93 302.834C1258.93 304.272 1258.37 305.654 1257.37 306.69L1235.32 337.352C1234.86 337.962 1234.28 338.472 1233.62 338.85C1232.96 339.229 1232.23 339.467 1231.48 339.551C1230.72 339.635 1229.95 339.563 1229.23 339.339C1228.5 339.115 1227.82 338.744 1227.25 338.249C1207.68 322.701 1183.38 314.345 1158.39 314.579C1135.44 314.579 1122.53 324.8 1122.53 339.863C1122.53 379.85 1267.05 353.132 1267.05 447.451C1267.05 492.997 1234.24 527.784 1166.28 527.784H1166.46ZM1482.41 440.458C1482.44 441.124 1482.32 441.788 1482.08 442.409C1481.84 443.029 1481.47 443.593 1481 444.064C1480.52 444.536 1479.96 444.904 1479.34 445.148C1478.72 445.391 1478.06 445.504 1477.39 445.479H1344.7C1344.48 445.501 1344.28 445.565 1344.09 445.668C1343.9 445.77 1343.74 445.909 1343.61 446.076C1343.47 446.242 1343.37 446.434 1343.31 446.639C1343.25 446.845 1343.24 447.06 1343.26 447.272C1345.41 459.671 1352.13 470.817 1362.08 478.516C1372.04 486.214 1384.51 489.909 1397.06 488.873C1413.51 488.524 1429.5 483.281 1442.96 473.81C1443.49 473.37 1444.1 473.046 1444.76 472.86C1445.42 472.674 1446.11 472.631 1446.79 472.733C1447.47 472.834 1448.12 473.079 1448.69 473.45C1449.27 473.822 1449.76 474.311 1450.13 474.886L1466.27 498.376C1466.94 499.42 1467.21 500.675 1467.01 501.9C1466.81 503.126 1466.16 504.234 1465.2 505.011C1443.89 520.559 1418.04 528.628 1391.68 527.963C1378.51 528.698 1365.33 526.672 1352.98 522.016C1340.64 517.359 1329.41 510.175 1320 500.923C1310.6 491.671 1303.23 480.556 1298.38 468.291C1293.52 456.026 1291.28 442.881 1291.8 429.699C1291.43 416.834 1293.68 404.028 1298.4 392.055C1303.13 380.082 1310.23 369.191 1319.28 360.04C1328.33 350.889 1339.14 343.668 1351.06 338.813C1362.98 333.958 1375.76 331.57 1388.63 331.794C1444.4 331.794 1482.23 373.574 1482.23 434.72L1482.41 440.458Z" fill="#01A71C"/>
</g>
<defs>
<clipPath id="clip0_0_1">
<rect width="2500" height="610" fill="white"/>
</clipPath>
</defs>
</svg>
